<?xml version="1.0" encoding="UTF-8"?> <svg xmlns="http://www.w3.org/2000/svg" width="42" height="42" viewBox="0 0 42 42" fill="none"> <rect x="0.5" y="0.5" width="41" height="41" rx="20.5" stroke="white" stroke-opacity="0.2"></rect> <path fill-rule="evenodd" clip-rule="evenodd" d="M28.6357 16.7466L28.6157 16.6162C28.8479 17.8771 28.969 19.1772 28.969 20.5059C28.969 20.5598 28.969 20.6137 28.9683 20.659C28.969 20.7082 28.969 20.7574 28.969 20.806C28.969 22.1341 28.8479 23.4342 28.6363 24.564L28.633 24.578C28.4434 25.2487 27.9217 25.777 27.2464 25.9726C25.9882 26.3113 20.9919 26.3113 20.9919 26.3113C20.9919 26.3113 15.981 26.3113 14.7375 25.9726L14.7235 25.9693C14.0615 25.777 13.5405 25.2487 13.3475 24.564L13.3681 24.6957C12.8791 22.0948 12.8824 19.1759 13.3475 16.7466L13.3508 16.7326C13.5405 16.0619 14.0621 15.5336 14.7368 15.338C15.9943 14.9934 20.9913 15 20.9913 15C20.9913 15 26.0008 15 27.2457 15.338L27.2597 15.3413C27.9217 15.5336 28.4427 16.0619 28.6357 16.7466ZM19.393 18.2324V23.0849L23.5622 20.6623L19.393 18.2324Z" fill="white"></path> </svg> 