<?xml version="1.0" encoding="UTF-8"?> <svg xmlns="http://www.w3.org/2000/svg" width="42" height="42" viewBox="0 0 42 42" fill="none"> <rect x="0.5" y="0.5" width="41" height="41" rx="20.5" stroke="white" stroke-opacity="0.2"></rect> <path fill-rule="evenodd" clip-rule="evenodd" d="M16.8984 20.9821C16.8984 18.7198 18.7351 16.8848 21.0038 16.8848C23.2704 16.8848 25.1091 18.7179 25.1091 20.9821C25.1091 23.2443 23.2724 25.0794 21.0038 25.0794C18.7371 25.0794 16.8984 23.2463 16.8984 20.9821ZM18.3391 20.9821C18.3391 22.4512 19.5311 23.6416 21.0038 23.6416C22.4764 23.6416 23.6691 22.4512 23.6684 20.9821C23.6684 19.513 22.4758 18.3226 21.0038 18.3226C19.5318 18.3226 18.3391 19.513 18.3391 20.9821Z" fill="white"></path> <path fill-rule="evenodd" clip-rule="evenodd" d="M17.7075 13.0502C19.1808 12.985 22.8268 12.9816 24.2988 13.0502C27.3102 13.1886 28.8175 14.8886 28.9495 17.6918C29.0148 19.1622 29.0188 22.8004 28.9495 24.2702C28.8402 26.6449 27.7215 27.967 26.2395 28.5412C25.1546 28.9604 24.0955 28.9604 21.0462 28.9604H21.0028C20.6813 28.9604 20.3702 28.9627 20.0689 28.965C17.5545 28.9836 15.7295 28.9971 14.3502 27.621C12.9805 26.2541 12.9904 24.4713 13.005 21.8478C13.0065 21.5686 13.0082 21.28 13.0082 20.9813C13.0082 20.6622 13.006 20.3538 13.0039 20.0555C12.986 17.5173 12.9733 15.7158 14.3502 14.3416C15.2708 13.4228 16.4128 13.1107 17.7075 13.0502ZM21.7175 27.523C24.4396 27.5292 25.6999 27.5321 26.6288 26.605C27.5624 25.6689 27.5612 24.4241 27.5585 21.5359C27.5583 21.3572 27.5581 21.1723 27.5582 20.9807C27.5582 18.8502 27.5495 18.5973 27.5115 17.7556C27.3585 14.3829 25.0153 14.4043 21.8994 14.4327C21.6074 14.4354 21.3086 14.4381 21.0042 14.4381L20.9742 14.4182C18.8686 14.4182 18.5942 14.4278 17.7751 14.4567L17.7368 14.4581C14.3628 14.6305 14.3832 16.8511 14.4125 20.0326C14.4153 20.3368 14.4182 20.6499 14.4182 20.9707C14.4182 21.349 14.4142 21.7094 14.4105 22.0526C14.3872 24.1733 14.3713 25.6346 15.3382 26.595C16.2675 27.5252 17.525 27.5243 20.5256 27.5221C20.6739 27.522 20.8265 27.5219 20.9835 27.5219C21.2394 27.5219 21.4838 27.5225 21.7175 27.523Z" fill="white"></path> <ellipse cx="25.2718" cy="16.7231" rx="0.959333" ry="0.957463" fill="white"></ellipse> </svg> 