<?xml version="1.0" encoding="UTF-8"?> <svg xmlns="http://www.w3.org/2000/svg" width="57" height="40" viewBox="0 0 57 40" fill="none"> <path fill-rule="evenodd" clip-rule="evenodd" d="M55.0758 6.1765L55.0055 5.71532C55.8235 10.1741 56.25 14.7718 56.25 19.4706C56.25 19.6612 56.25 19.8518 56.2477 20.0118C56.25 20.1859 56.25 20.36 56.25 20.5318C56.25 25.2282 55.8235 29.8259 55.0782 33.8212L55.0665 33.8706C54.3985 36.2424 52.561 38.1106 50.1821 38.8024C45.7502 40 28.1511 40 28.1511 40C28.1511 40 10.5006 40 6.12015 38.8024L6.07093 38.7906C3.73893 38.1106 1.90379 36.2424 1.22411 33.8212L1.29677 34.2871C-0.425868 25.0894 -0.41415 14.7671 1.22411 6.1765L1.23583 6.12709C1.90379 3.75532 3.74127 1.88709 6.11781 1.19533C10.5474 -0.0234969 28.1488 3.25168e-05 28.1488 3.25168e-05C28.1488 3.25168e-05 45.7947 3.24847e-05 50.1798 1.19533L50.229 1.20709C52.561 1.88709 54.3962 3.75532 55.0758 6.1765ZM22.5 11.8749V28.75L36.875 20.3252L22.5 11.8749Z" fill="#FF0000"></path> <path fill-rule="evenodd" clip-rule="evenodd" d="M22.5 28.75V11.875L36.875 20.3252L22.5 28.75Z" fill="white"></path> </svg> 