<?xml version="1.0" encoding="UTF-8"?> <svg xmlns="http://www.w3.org/2000/svg" width="42" height="42" viewBox="0 0 42 42" fill="none"> <rect x="0.5" y="0.5" width="41" height="41" rx="20.5" stroke="white" stroke-opacity="0.2"></rect> <path d="M26.638 14.0036C24.4237 13.9231 22.9279 15.1926 22.1388 17.7922C22.5447 17.6106 22.9393 17.5294 23.3212 17.5294C24.1323 17.5294 24.4909 17.9931 24.3951 18.9147C24.3472 19.4729 23.9905 20.2847 23.3225 21.3526C22.6512 22.4205 22.1495 22.9555 21.8154 22.9555C20.8028 22.9555 20.1939 18.1089 19.9877 16.7855C19.7009 14.9458 18.9364 14.0854 17.6942 14.2059C16.5537 14.3143 14.5636 16.3677 13 17.7596L13.7512 18.739C14.4665 18.232 14.8837 17.9778 15.0028 17.9778C16.2477 17.9778 16.8505 22.2142 17.8173 25.3647C18.466 27.1033 19.2438 27.973 20.1813 27.973C21.6877 27.973 23.5228 26.5464 25.6972 23.692C27.7964 20.9593 28.8836 18.8056 28.9535 17.2346L28.9622 17.228C29.0513 15.1221 28.2828 14.0442 26.638 14.0036Z" fill="white"></path> </svg> 