<?xml version="1.0" encoding="UTF-8" standalone="no"?>
<svg
   xmlns:dc="http://purl.org/dc/elements/1.1/"
   xmlns:cc="http://creativecommons.org/ns#"
   xmlns:rdf="http://www.w3.org/1999/02/22-rdf-syntax-ns#"
   xmlns:svg="http://www.w3.org/2000/svg"
   xmlns="http://www.w3.org/2000/svg"
   xmlns:sodipodi="http://sodipodi.sourceforge.net/DTD/sodipodi-0.dtd"
   xmlns:inkscape="http://www.inkscape.org/namespaces/inkscape"
   width="12"
   height="10"
   viewBox="0 0 12 10"
   version="1.1"
   id="svg827"
   sodipodi:docname="arr-right-w.svg"
   inkscape:version="0.92.3 (2405546, 2018-03-11)">
  <metadata
     id="metadata833">
    <rdf:RDF>
      <cc:Work
         rdf:about="">
        <dc:format>image/svg+xml</dc:format>
        <dc:type
           rdf:resource="http://purl.org/dc/dcmitype/StillImage" />
        <dc:title></dc:title>
      </cc:Work>
    </rdf:RDF>
  </metadata>
  <defs
     id="defs831" />
  <sodipodi:namedview
     pagecolor="#ffffff"
     bordercolor="#666666"
     borderopacity="1"
     objecttolerance="10"
     gridtolerance="10"
     guidetolerance="10"
     inkscape:pageopacity="0"
     inkscape:pageshadow="2"
     inkscape:window-width="752"
     inkscape:window-height="480"
     id="namedview829"
     showgrid="false"
     inkscape:zoom="55.2"
     inkscape:cx="6"
     inkscape:cy="5"
     inkscape:window-x="0"
     inkscape:window-y="0"
     inkscape:window-maximized="1"
     inkscape:current-layer="svg827" />
  <path
     fill="#8094A1"
     fill-rule="evenodd"
     d="M11.558 6.018l-3.735 3.56a1.563 1.563 0 0 1-2.135 0 1.393 1.393 0 0 1 0-2.035l1.18-1.125H1.5C.671 6.418 0 5.778 0 4.99c0-.79.671-1.43 1.499-1.43h5.346L5.688 2.456a1.392 1.392 0 0 1 0-2.034 1.561 1.561 0 0 1 2.135 0l3.735 3.56c.59.562.59 1.474 0 2.036z"
     id="path825"
     style="fill:#ffffff" />
</svg>
