<svg xmlns="http://www.w3.org/2000/svg" width="19" height="19" viewBox="0 0 19 19">
    <path fill="#8094A1" fill-rule="evenodd" d="M11.883 9.225c1.59-.827 2.675-2.454 2.675-4.323C14.558 2.2 12.29 0 9.5 0 6.71 0 4.442 2.2 4.442 4.902c0 1.869 1.084 3.496 2.675 4.324C3.031 10.254 0 13.85 0 18.128c0 .481.402.872.9.872.497 0 .9-.39.9-.872 0-4.116 3.454-7.463 7.7-7.463s7.7 3.347 7.7 7.463c0 .481.403.872.9.872.498 0 .9-.39.9-.872 0-4.278-3.03-7.874-7.117-8.903zM9.5 1.745c1.797 0 3.259 1.416 3.259 3.157 0 1.742-1.462 3.159-3.259 3.159-1.796 0-3.259-1.417-3.259-3.159 0-1.741 1.463-3.158 3.259-3.158z"/>
</svg>
