<svg xmlns="http://www.w3.org/2000/svg" width="17" height="22" viewBox="0 0 17 22">
    <path fill="#8094A1" fill-rule="evenodd" d="M16.124 22H.876A.875.875 0 0 1 0 21.128V9.04c0-.482.393-.873.876-.873H3.98v-3.67C3.98 2.018 6.008 0 8.5 0c2.492 0 4.52 2.018 4.52 4.498v3.67h3.104c.484 0 .876.391.876.873v12.087a.874.874 0 0 1-.876.872zM11.267 4.498A2.763 2.763 0 0 0 8.5 1.745a2.763 2.763 0 0 0-2.767 2.753v3.67h5.534v-3.67zm3.981 5.415H1.753v10.342h13.495V9.913zm-6.873 2.673c.483 0 .875.391.875.873v3.336a.874.874 0 0 1-.875.872.874.874 0 0 1-.877-.872v-3.336c0-.482.392-.873.877-.873z"/>
</svg>
