<?xml version="1.0" encoding="utf-8"?>
<svg width="386" height="198" viewBox="0 0 386 198" fill="none" xmlns="http://www.w3.org/2000/svg">
<path d="M380.865 0L331.497 198H0L49.3673 0H380.865Z" fill="white"/>
<path fill-rule="evenodd" clip-rule="evenodd" d="M131.199 77.7596C132.371 78.6261 133.262 79.6628 133.868 80.8648C134.474 82.0718 134.775 83.4291 134.77 84.9466C134.77 89.1837 133.357 92.5142 130.527 94.9432C127.693 97.3723 123.831 98.5843 118.928 98.5843H96.5358L97.4874 94.773L102.546 93.571V60.2755L100.713 59.8448L96.5208 58.8531L97.4173 55.2621H115.653C121.623 55.2621 126.035 56.1636 128.89 57.9666C131.739 59.7746 133.167 62.5943 133.167 66.4257C133.167 68.1185 132.621 69.7563 131.529 71.3389C130.437 72.9216 128.84 74.3389 126.746 75.586C128.534 76.167 130.012 76.8882 131.199 77.7596ZM113.815 60.4107C113.123 60.4558 112.532 60.5209 112.042 60.611V74.0534H114.381C117.14 74.0534 119.294 73.4274 120.831 72.1803C122.374 70.9332 123.14 69.2154 123.14 67.0317C123.14 62.5743 120.666 60.3456 115.718 60.3456C115.137 60.3456 114.506 60.3656 113.815 60.4107ZM114.516 93.5059C118.037 93.5059 120.601 92.9149 122.204 91.7329C123.811 90.5509 124.608 88.6878 124.608 86.1536C124.608 83.7897 123.776 82.0317 122.098 80.8698C120.426 79.7129 117.876 79.1319 114.441 79.1319H112.037V93.4407C112.262 93.4858 112.527 93.5059 112.838 93.5059H114.516Z" fill="black"/>
<path d="M154.628 93.571L156.466 94.0067L159.977 94.8431V98.5843H139.783V94.8431L145.132 93.571V60.2254H139.167L140.404 55.2621H160.593L159.356 60.2254H154.628V93.571Z" fill="black"/>
<path d="M193.603 60.3406L186.185 60.3406V93.571L191.534 94.8431V98.5843H171.341V94.8431L176.689 93.571V60.3406H164.815L166.082 55.2621H199.828V64.0868H194.539L193.608 60.3406L193.688 60.6761L193.603 60.3406Z" fill="black"/>
<path d="M212.865 118.743V115.933L218.078 114.531L219.681 107.579H223.563V115.202H232.988V117.075L232.052 118.748H223.563V140.679C223.563 142.062 223.838 142.963 224.394 143.389C224.955 143.815 225.786 144.025 226.903 144.025C228.2 144.025 229.978 143.735 232.252 143.159L232.923 145.297C232.968 145.297 232.613 145.563 231.856 146.098C231.095 146.634 230.139 147.18 228.977 147.736C227.82 148.292 226.593 148.573 225.3 148.573C222.451 148.573 220.533 147.881 219.556 146.499C218.569 145.122 218.083 143.334 218.083 141.15V118.743H212.865Z" fill="black"/>
<path d="M116.624 147.891C118.202 147.225 119.84 146.199 121.538 144.816L120.656 142.823C117.806 143.76 115.307 144.225 113.169 144.225C110.855 144.225 108.886 143.82 107.289 143.018C105.681 142.217 104.464 140.91 103.643 139.107C102.811 137.299 102.406 134.885 102.406 131.85C102.406 128.865 102.676 126.391 103.207 124.427C103.743 122.464 104.654 120.982 105.952 119.98C107.244 118.978 109.007 118.477 111.235 118.477C112.613 118.477 114.065 118.743 115.578 119.279L116.649 125.564C117.225 125.875 117.942 126.03 118.788 126.03C119.765 126.03 120.531 125.694 121.062 125.028C121.598 124.357 121.863 123.666 121.863 122.955C121.863 121.482 121.487 120.115 120.726 118.843C119.97 117.571 118.833 116.549 117.321 115.768C115.803 114.987 113.91 114.596 111.636 114.596C109.192 114.596 107.013 115.082 105.12 116.063C103.227 117.045 101.644 118.372 100.377 120.045C99.1002 121.718 98.1436 123.636 97.4975 125.795C96.8564 127.958 96.5309 130.237 96.5309 132.646C96.5309 136.167 97.1569 139.142 98.404 141.571C99.6561 144.005 101.359 145.833 103.518 147.055C105.681 148.282 108.12 148.893 110.84 148.893C113.114 148.893 115.042 148.558 116.624 147.891Z" fill="black"/>
<path fill-rule="evenodd" clip-rule="evenodd" d="M136.242 148.763C133.968 148.763 132.14 148.382 130.758 147.626C129.376 146.87 128.364 145.853 127.718 144.586C127.072 143.314 126.751 141.947 126.751 140.474C126.751 138.601 127.197 136.988 128.088 135.626C128.975 134.264 130.302 133.142 132.065 132.25C133.823 131.359 136.042 130.733 138.716 130.377L144.736 129.506V124.492C144.736 122.529 144.17 121.107 143.033 120.215C141.896 119.324 140.279 118.878 138.185 118.878C137.028 118.878 135.646 119.053 134.038 119.409L133.037 125.559C132.366 125.87 131.654 126.025 130.898 126.025C130.137 126.025 129.436 125.75 128.795 125.189C128.149 124.633 127.828 123.886 127.828 122.95C127.828 121.568 128.349 120.351 129.396 119.304C130.447 118.257 131.735 117.391 133.277 116.7C134.815 116.008 136.342 115.487 137.86 115.127C139.372 114.771 140.574 114.596 141.466 114.596C144.366 114.596 146.549 115.352 148.022 116.87C149.489 118.387 150.225 120.19 150.225 122.289V143.75L154.968 144.686V147.225C153.766 147.671 152.649 148.007 151.628 148.227C150.606 148.452 149.489 148.563 148.287 148.563C147.035 148.563 146.214 148.227 145.813 147.561C145.412 146.89 145.167 146.199 145.077 145.487H144.811C144.586 145.753 144.06 146.144 143.239 146.659C142.412 147.17 141.401 147.651 140.199 148.097C138.987 148.538 137.669 148.763 136.242 148.763ZM138.781 144.551C140.474 144.551 142.457 144.15 144.726 143.344V132.716C141.962 132.891 139.693 133.247 137.91 133.783C136.127 134.319 134.805 135.04 133.933 135.957C133.062 136.873 132.626 138.04 132.626 139.467C132.626 140.85 133.147 142.042 134.199 143.043C135.245 144.045 136.778 144.551 138.781 144.551Z" fill="black"/>
<path fill-rule="evenodd" clip-rule="evenodd" d="M157.973 156.516V159.331H173.885V156.391L168.07 155.589V146.023C170.068 147.541 172.407 148.297 175.087 148.297C178.072 148.297 180.656 147.541 182.84 146.023C185.028 144.511 186.721 142.372 187.923 139.608C189.125 136.843 189.731 133.588 189.731 129.846C189.731 124.898 188.674 121.122 186.556 118.513C184.437 115.903 181.377 114.601 177.366 114.601C175.848 114.601 174.23 114.922 172.518 115.568C170.795 116.214 169.297 117.09 168 118.207L167.935 118.007L167.199 115.262L157.237 117.135V119.875L162.586 120.811V155.579L157.973 156.516ZM181.578 141.371C180.155 143.399 177.856 144.416 174.691 144.416C173.574 144.416 172.402 144.26 171.18 143.95C169.958 143.634 168.917 143.234 168.075 142.743V120.28C169.232 119.925 170.369 119.669 171.481 119.509C172.598 119.354 173.755 119.274 174.957 119.274C178.122 119.274 180.376 120.235 181.708 122.149C183.045 124.067 183.716 127.252 183.716 131.71C183.716 136.122 183.005 139.342 181.578 141.371Z" fill="black"/>
<path d="M198.371 115.197L197.083 120.371L199.623 120.811V144.616L194.279 145.553V148.292H210.32V145.553L205.112 144.616V115.197H198.371Z" fill="black"/>
<path fill-rule="evenodd" clip-rule="evenodd" d="M241.477 147.626C242.86 148.382 244.688 148.763 246.962 148.763C248.389 148.763 249.706 148.538 250.918 148.097C252.12 147.651 253.132 147.17 253.958 146.659C254.78 146.144 255.305 145.753 255.531 145.487H255.796C255.886 146.199 256.132 146.89 256.532 147.561C256.933 148.227 257.755 148.563 259.007 148.563C260.209 148.563 261.325 148.452 262.347 148.227C263.369 148.007 264.486 147.671 265.688 147.225V144.686L260.945 143.75V122.289C260.945 120.19 260.209 118.387 258.741 116.87C257.269 115.352 255.085 114.596 252.185 114.596C251.294 114.596 250.092 114.771 248.579 115.127C247.062 115.487 245.534 116.008 243.997 116.7C242.454 117.391 241.167 118.257 240.115 119.304C239.068 120.351 238.548 121.568 238.548 122.95C238.548 123.886 238.868 124.633 239.514 125.189C240.155 125.75 240.856 126.025 241.618 126.025C242.374 126.025 243.085 125.87 243.756 125.559L244.758 119.409C246.366 119.053 247.748 118.878 248.905 118.878C250.998 118.878 252.616 119.324 253.753 120.215C254.89 121.107 255.456 122.529 255.456 124.492V129.506L249.436 130.377C246.761 130.733 244.543 131.359 242.785 132.25C241.022 133.142 239.694 134.264 238.808 135.626C237.916 136.988 237.471 138.601 237.471 140.474C237.471 141.947 237.791 143.314 238.437 144.586C239.083 145.853 240.095 146.87 241.477 147.626ZM255.446 143.344C253.177 144.15 251.194 144.551 249.501 144.551C247.497 144.551 245.965 144.045 244.918 143.043C243.866 142.042 243.346 140.85 243.346 139.467C243.346 138.04 243.781 136.873 244.653 135.957C245.524 135.04 246.846 134.319 248.629 133.783C250.412 133.247 252.681 132.891 255.446 132.716V143.344Z" fill="black"/>
<path d="M268.287 145.553L273.641 144.616V106.708L268.287 105.771V103.027L277.588 101.554L279.12 102.16V144.616L284.339 145.553V148.297H268.287V145.553Z" fill="black"/>
<path fill-rule="evenodd" clip-rule="evenodd" d="M294.915 148.155C295.491 148.401 296.107 148.526 296.763 148.526C297.424 148.526 298.04 148.406 298.611 148.155C299.187 147.91 299.693 147.569 300.129 147.129C300.569 146.693 300.91 146.187 301.155 145.611C301.401 145.035 301.526 144.419 301.526 143.763C301.526 143.107 301.401 142.491 301.155 141.915C300.91 141.344 300.569 140.838 300.129 140.397C299.693 139.962 299.187 139.616 298.611 139.371C298.035 139.125 297.419 139 296.763 139C296.107 139 295.491 139.125 294.915 139.371C294.344 139.616 293.838 139.962 293.397 140.397C292.962 140.833 292.616 141.339 292.371 141.915C292.125 142.491 292 143.107 292 143.763C292 144.419 292.125 145.035 292.371 145.611C292.616 146.182 292.962 146.693 293.397 147.129C293.833 147.569 294.339 147.91 294.915 148.155ZM298.561 146.923C298.03 147.249 297.429 147.409 296.763 147.409C296.087 147.409 295.481 147.244 294.945 146.918C294.616 146.713 294.331 146.466 294.091 146.177H296.973V145.521L296.202 145.406V144.454H296.678L297.644 145.932C297.72 146.077 297.855 146.147 298.04 146.147H299.463C299.208 146.455 298.907 146.714 298.561 146.923ZM299.698 145.83V145.521L298.957 145.376L298.035 144.109C298.331 144.013 298.571 143.838 298.756 143.578C298.942 143.317 299.037 143.042 299.037 142.746C299.037 142.321 298.886 141.985 298.591 141.745C298.295 141.504 297.89 141.384 297.374 141.384H294.071C294.314 141.086 294.601 140.831 294.935 140.618C295.461 140.282 296.067 140.117 296.758 140.117C297.419 140.117 298.015 140.282 298.551 140.603C299.087 140.923 299.513 141.364 299.833 141.915C300.149 142.471 300.309 143.087 300.309 143.763C300.309 144.444 300.154 145.06 299.833 145.611C299.79 145.686 299.745 145.759 299.698 145.83ZM294.038 141.425C293.912 141.585 293.799 141.756 293.698 141.94C293.397 142.486 293.247 143.097 293.247 143.763C293.247 144.429 293.397 145.04 293.698 145.596C293.752 145.696 293.811 145.793 293.873 145.886V145.521L294.644 145.406V142.27L294.038 142.17V141.425ZM296.503 143.583H296.192V142.316C296.347 142.28 296.518 142.265 296.703 142.265C296.953 142.265 297.139 142.316 297.254 142.421C297.369 142.526 297.424 142.686 297.424 142.907C297.424 143.357 297.114 143.583 296.503 143.583Z" fill="black"/>
<path d="M205.112 110.164H199.623L217.447 38.6745H222.932L205.112 110.164Z" fill="#7BD8FB"/>
</svg>
